{"title":"A.Chorus.Line.1985.iNTERNAL.DVDRip.XviD-EXViDiNT","uid":7058228,"size":1482682421,"categoryP":"video","categoryS":"movies","magnet":"?xt=urn:btih:1cd9bee66b741e707341d8bb65042e633fcdeb2e&amp;dn=A.Chorus.Line.1985.iNTERNAL.DVDRip.XviD-EXViDiNT&amp;tr=udp%3A%2F%2Ftracker.openbittorrent.com%3A80&amp;tr=udp%3A%2F%2Fopen.demonii.com%3A1337&amp;tr=udp%3A%2F%2Ftracker.coppersurfer.tk%3A6969&amp;tr=udp%3A%2F%2Fexodus.desync.com%3A6969","seeders":13,"leechers":4,"uploader":"TvTeam","files":8,"time":1330235313,"description":". \n &lt;a href=&quot;\nhttp://www.torrenting.com&quot; rel=&quot;nofollow&quot; target=&quot;_NEW&quot;&gt;\nhttp://www.torrenting.com&lt;/a&gt;          :     Once &amp; For all ;)\n\n\n               www . Torrenting . Com \n\n(((((((((((((= Enjoy No RAR releases =))))))))))))))))))))\n\n\n...................................NFO:....................................\n\n.                                                                                                     \n       \n     \n     \n       \n       \n     \n     \n                                         \n                                         \n                EXVID                    \n                                         \n         \n                                         \n         Filled the Archives             \n                                         \n         \n                                         \n                With:                    \n                                         \n         \n                                         \n                                    \n     E240                           \n                                    \n     SP               (C) 2009      \n                                         \n     \n     \n     \n                                                                                  \n                                                                                   \n                 A.Chorus.Line.1985.iNTERNAL.DVDRip.XviD-EXViDiNT                   \n                                                                                   \n                                                                                  \n     \n                                                                                               \nEXViD aims to iNTERNAL those releases which have been lost in the archives.\nEXViD aims to PRE non-internal releases which have poor sources and are likely skipped by others.\n &lt;a href=&quot;\nhttp://www.imdb.com/title/tt0088915/&quot; rel=&quot;nofollow&quot; target=&quot;_NEW&quot;&gt;\nhttp://www.imdb.com/title/tt0088915/&lt;/a&gt;\nSubtitles: EN, ES\nDate: 2012.02\n\nDirector: Richard Attenborough\n\nGenres: Drama | Music | Musical\n\nPlot:\nA director is casting dancers for a large production. Large numbers of hopefulls audition, hoping\nto be selected. Throughout the day, more and more people are eliminated, and the competition gets\nharder. Eventually, approximately a dozen dancers must compete for a few spots, each hoping to\nimpress the director with their dancing skill. But, is this really what the director is looking\nfor?\n\nCast:\nMichael Blevins\t...\tMark Tobori\nYamil Borges\t...\tDiana Morales\nJan Gan Boyd\t...\tConnie Wong\nSharon Brown\t...\tKim\nGregg Burge\t...\tRichie Walters\nMichael Douglas\t...\tZach\nCameron English\t...\tPaul San Marco\nTony Fields\t...\tAl DeLuca\nNicole Fosse\t...\tSheila Bryant\nVicki Frederick\t...\tBeatrice Ann 'Bebe' Benson\nMichelle Johnston\t...\tJudy Monroe\nJanet Jones\t...\tMaggie Winslow\nPam Klinger\t...\tVal Clarke\nAudrey Landers\t...\tLarry\nTerrence Mann\t...\tMike Cass\n\nStats:\nFormat                                   : AVI\nFormat/Info                              : Audio Video Interleave\nFormat profile                           : OpenDML\nFile size                                : 1.36 GiB\nDuration                                 : 1h 57mn\nOverall bit rate                         : 1 660 Kbps\n\nVideo\nID                                       : 0\nFormat                                   : MPEG-4 Visual\nFormat profile                           : Advanced Simple@L5\nFormat settings, BVOP                    : 1\nFormat settings, QPel                    : No\nFormat settings, GMC                     : No warppoints\nFormat settings, Matrix                  : Default (MPEG)\nCodec ID                                 : XVID\nCodec ID/Hint                            : XviD\nDuration                                 : 1h 57mn\nBit rate                                 : 1461 Kbps\nWidth                                    : 640 pixels\nHeight                                   : 272 pixels\nDisplay aspect ratio                     : 2.35:1\nFrame rate                               : 23.976 fps\nColor space                              : YUV\nChroma subsampling                       : 4:2:0\nBit depth                                : 8 bits\nScan type                                : Progressive\nCompression mode                         : Lossy\nBits/(Pixel*Frame)                       : 0.350\nStream size                              : 1229 MiB (88%)\nWriting library                          : XviD 64\n\nAudio\nID                                       : 1\nFormat                                   : AC-3\nFormat/Info                              : Audio Coding 3\nCodec ID                                 : 2000\nDuration                                 : 1h 57mn\nBit rate mode                            : Constant\nBit rate                                 : 192 Kbps\nChannel(s)                               : 2 channels\nSampling rate                            : 48.0 KHz\nBit depth                                : 16 bits\nCompression mode                         : Lossy\nStream size                              : 162 MiB (12%)\nAlignment                                : Aligned on interleaves\n\n\n\nRelease notes:\nEnjoy!\n\nLooking for:\n75TB+ Archives\nDUTCH/FLEMiSH Archives\n                                                                                                    \nGreets: CRBS EPiSODE FiCO FLS iLS KLASSiGER LiPSYNC MADE NODLABS RUNNER SPRiNTER      \n   \n\n                                                                    ASCII DONE BY XX^NFO 2oo9     \n \n\nRLS-Crc: 415243414445:42EECD90","torrent":{"xt":"urn:btih:1cd9bee66b741e707341d8bb65042e633fcdeb2e","amp;dn":"A.Chorus.Line.1985.iNTERNAL.DVDRip.XviD-EXViDiNT","amp;tr":["udp%3A%2F%2Ftracker.openbittorrent.com%3A80","udp%3A%2F%2Fopen.demonii.com%3A1337","udp%3A%2F%2Ftracker.coppersurfer.tk%3A6969","udp%3A%2F%2Fexodus.desync.com%3A6969"],"infoHash":"1cd9bee66b741e707341d8bb65042e633fcdeb2e","infoHashBuffer":{"type":"Buffer","data":[28,217,190,230,107,116,30,112,115,65,216,187,101,4,46,99,63,205,235,46]},"announce":[],"urlList":[]}}